<svg xmlns="http://www.w3.org/2000/svg" viewBox="0 0 10.35 11.28">
  <defs>
    <style>
      .cls-1 {
        fill: #adb0b5;
        fill-rule: evenodd;
      }
    </style>
  </defs>
  <title>avatar</title>
  <g id="Layer_2" data-name="Layer 2">
    <g id="Layer_1-2" data-name="Layer 1">
      <path class="cls-1" d="M7.18,5.9C10,7.24,10.33,7.34,10.34,7.82c0,.76,0,1.52,0,2.28a30.48,30.48,0,0,1-5.17,1.18A30.4,30.4,0,0,1,0,10.1c0-.76,0-1.52,0-2.28,0-.48.32-.58,3.16-1.92l1,3h.23l.36-2.06a.61.61,0,0,1-.24-.47V6.32A.37.37,0,0,1,4.94,6h.47a.36.36,0,0,1,.36.36v.06a.6.6,0,0,1-.23.47L5.9,8.91h.23ZM5.17,0A2.56,2.56,0,1,1,2.62,2.55,2.55,2.55,0,0,1,5.17,0Z"/>
    </g>
  </g>
</svg>
