<svg xmlns="http://www.w3.org/2000/svg" viewBox="0 0 10.67 10.67">
  <defs>
    <style>
      .cls-1 {
        fill: #adb0b5;
      }
    </style>
  </defs>
  <title>cog</title>
  <g id="Layer_2" data-name="Layer 2">
    <g id="Layer_1-2" data-name="Layer 1">
      <path class="cls-1" d="M10.67,6.06V4.62c-.73-.26-1.19-.34-1.43-.9h0c-.23-.57,0-1,.38-1.65l-1-1c-.69.33-1.08.62-1.65.38H7C6.39,1.2,6.32.73,6.06,0H4.62c-.26.73-.33,1.2-.9,1.43h0c-.57.24-1,0-1.65-.38l-1,1c.34.7.62,1.08.38,1.65s-.7.64-1.43.9V6.06c.73.25,1.2.33,1.43.89s-.05,1-.38,1.65l1,1c.7-.33,1.08-.61,1.65-.38h0c.57.24.64.7.9,1.43H6.06c.25-.72.33-1.19.9-1.43H7c.56-.23.94,0,1.64.38l1-1C9.29,7.91,9,7.52,9.24,7S10,6.31,10.67,6.06ZM5.34,7.12A1.78,1.78,0,1,1,7.12,5.34,1.78,1.78,0,0,1,5.34,7.12Z"/>
    </g>
  </g>
</svg>
