<svg xmlns="http://www.w3.org/2000/svg" viewBox="0 0 23.45 23.45">
  <defs>
    <style>
      .cls-1 {
        fill: #adb0b5;
      }

      .cls-2 {
        fill: #fff;
      }
    </style>
  </defs>
  <title>utah</title>
  <g id="Layer_2" data-name="Layer 2">
    <g id="Layer_1-2" data-name="Layer 1">
      <g>
        <circle class="cls-1" cx="11.72" cy="11.72" r="11.72"/>
        <path class="cls-2" d="M16.83,18h-.46l-2.54,0L10.7,18,8.63,18,7,18.06c-.19,0-.19,0-.19-.19,0-.74,0-1.48,0-2.22,0-1,0-2,0-3l.06-2.27c0-.72,0-1.45,0-2.17L7,5.82c0-.16,0-.32,0-.48s0-.1.1-.09h5.41c.1,0,.15,0,.15.13,0,.29,0,.58,0,.86,0,.45,0,.89,0,1.34,0,.15,0,.15.15.15h3.59c.08,0,.1,0,.1.09,0,.41,0,.82,0,1.23,0,.8.06,1.61.08,2.41s.05,1.59.07,2.39c0,.51,0,1,0,1.54,0,.76,0,1.53.07,2.3A1.91,1.91,0,0,1,16.83,18Z"/>
      </g>
    </g>
  </g>
</svg>
